<?xml version="1.0" encoding="UTF-8" standalone="no"?>
<svg
   xmlns:dc="http://purl.org/dc/elements/1.1/"
   xmlns:cc="http://creativecommons.org/ns#"
   xmlns:rdf="http://www.w3.org/1999/02/22-rdf-syntax-ns#"
   xmlns:svg="http://www.w3.org/2000/svg"
   xmlns="http://www.w3.org/2000/svg"
   xmlns:xlink="http://www.w3.org/1999/xlink"
   id="svg2"
   width="320"
   viewBox="0 0 256 64"
   version="1.1"
   height="80">
  <metadata
     id="metadata4105">
    <rdf:RDF>
      <cc:Work
         rdf:about="">
        <dc:format>image/svg+xml</dc:format>
        <dc:type
           rdf:resource="http://purl.org/dc/dcmitype/StillImage" />
        <dc:title></dc:title>
      </cc:Work>
    </rdf:RDF>
  </metadata>
  <defs
     style="stroke-linecap:butt;stroke-linejoin:round;stroke-miterlimit:1"
     id="defs4">
    <style
       id="style6"
       type="text/css">
*{stroke-linecap:butt;stroke-linejoin:round;stroke-miterlimit:1;}
  </style>
    <defs
       id="defs3975">
      <path
         style="stroke-linecap:butt;stroke-linejoin:round;stroke-miterlimit:1"
         id="Cmr10-31"
         d="m 9.28125,0 l 0,3.515625 q 12.5,0 12.5,3.171875 l 0,52.5 q -5.171875,-2.5 -13.09375,-2.5 l 0,3.515625 q 12.265625,0 18.515625,6.40625 l 1.40625,0 q 0.34375,0 0.65625,-0.28125 Q 29.59375,66.0625 29.59375,65.71875 l 0,-59.03125 q 0,-3.171875 12.5,-3.171875 L 42.09375,0 Z" />
      <path
         style="stroke-linecap:butt;stroke-linejoin:round;stroke-miterlimit:1"
         id="Cmr10-67"
         d="m 2.78125,-7.8125 q 0,3.5625 2.578125,6.234375 q 2.59375,2.65625 6.171875,3.78125 Q 9.515625,3.71875 8.46875,6 Q 7.421875,8.296875 7.421875,10.890625 q 0,4.6875 2.984375,8.296875 Q 5.8125,23.6875 5.8125,29.5 q 0,3.125 1.34375,5.859375 Q 8.5,38.09375 10.890625,40.09375 q 2.390625,2 5.3125,3.046875 q 2.9375,1.046875 6.015625,1.046875 q 5.953125,0 10.6875,-3.46875 q 2.0625,2.203125 4.859375,3.390625 q 2.8125,1.203125 5.84375,1.203125 q 2.140625,0 3.5,-1.546875 q 1.375,-1.53125 1.375,-3.671875 q 0,-1.21875 -0.9375,-2.15625 Q 46.625,37.015625 45.40625,37.015625 q -1.265625,0 -2.203125,0.921875 Q 42.28125,38.875 42.28125,40.09375 q 0,1.84375 1.21875,2.578125 q -5.171875,0 -8.875,-3.5625 Q 36.421875,37.3125 37.515625,34.6875 Q 38.625,32.078125 38.625,29.5 q 0,-4.25 -2.34375,-7.65625 q -2.34375,-3.390625 -6.1875,-5.265625 q -3.828125,-1.875 -7.875,-1.875 q -5.46875,0 -10.015625,2.96875 q -1.40625,-1.953125 -1.40625,-4.390625 q 0,-2.640625 1.734375,-4.625 Q 14.265625,6.6875 16.890625,6.6875 l 8.203125,0 q 5.96875,0 10.75,-1.078125 Q 40.625,4.546875 43.875,1.3125 q 3.25,-3.21875 3.25,-9.125 q 0,-4.390625 -3.71875,-7.296875 q -3.703125,-2.90625 -8.859375,-4.203125 Q 29.390625,-20.609375 25,-20.609375 q -4.4375,0 -9.625,1.296875 q -5.171875,1.296875 -8.890625,4.203125 Q 2.78125,-12.203125 2.78125,-7.8125 m 5.625,0 q 0,-3.375 2.734375,-5.640625 Q 13.875,-15.71875 17.71875,-16.8125 Q 21.578125,-17.921875 25,-17.921875 q 3.375,0 7.21875,1.109375 q 3.859375,1.09375 6.5625,3.359375 Q 41.5,-11.1875 41.5,-7.8125 q 0,5.21875 -4.78125,6.765625 q -4.78125,1.53125 -11.625,1.53125 l -8.203125,0 q -2.296875,0 -4.21875,-1.09375 Q 10.75,-1.703125 9.578125,-3.6875 Q 8.40625,-5.671875 8.40625,-7.8125 m 13.8125,25.203125 q 8.5,0 8.5,12.109375 q 0,5.21875 -1.8125,8.609375 Q 27.09375,41.5 22.21875,41.5 q -4.890625,0 -6.703125,-3.390625 Q 13.71875,34.71875 13.71875,29.5 q 0,-3.328125 0.6875,-6.015625 q 0.6875,-2.6875 2.53125,-4.390625 q 1.859375,-1.703125 5.28125,-1.703125" />
      <path
         style="stroke-linecap:butt;stroke-linejoin:round;stroke-miterlimit:1"
         id="ArialMT-78"
         d="m 0.734375,0 l 18.9375,26.953125 L 2.15625,51.859375 l 10.984375,0 l 7.953125,-12.15625 q 2.25,-3.46875 3.609375,-5.8125 q 2.15625,3.21875 3.953125,5.703125 l 8.75,12.265625 l 10.5,0 L 29.984375,27.4375 L 49.265625,0 L 38.484375,0 L 27.828125,16.109375 L 25,20.453125 L 11.375,0 Z" />
      <path
         style="stroke-linecap:butt;stroke-linejoin:round;stroke-miterlimit:1"
         id="ArialMT-66"
         d="m 8.6875,0 l 0,45.015625 l -7.765625,0 l 0,6.84375 l 7.765625,0 l 0,5.515625 q 0,5.21875 0.9375,7.765625 q 1.265625,3.421875 4.453125,5.53125 q 3.203125,2.125 8.96875,2.125 q 3.71875,0 8.203125,-0.875 l -1.3125,-7.65625 Q 27.203125,64.75 24.75,64.75 q -4,0 -5.65625,-1.71875 Q 17.4375,61.328125 17.4375,56.640625 l 0,-4.78125 l 10.109375,0 l 0,-6.84375 l -10.109375,0 L 17.4375,0 Z" />
      <path
         style="stroke-linecap:butt;stroke-linejoin:round;stroke-miterlimit:1"
         id="Cmr10-28"
         d="m 31,-24.8125 q -5.5625,4.40625 -9.59375,10.09375 q -4.015625,5.6875 -6.59375,12.140625 q -2.5625,6.4375 -3.828125,13.46875 Q 9.71875,17.921875 9.71875,25 q 0,7.171875 1.265625,14.203125 q 1.265625,7.03125 3.875,13.53125 q 2.625,6.5 6.671875,12.15625 Q 25.59375,70.5625 31,74.8125 Q 31,75 31.5,75 l 0.921875,0 q 0.296875,0 0.53125,-0.265625 q 0.25,-0.265625 0.25,-0.609375 q 0,-0.4375 -0.1875,-0.640625 Q 28.125,68.703125 24.875,63.234375 q -3.25,-5.46875 -5.234375,-11.65625 Q 17.671875,45.40625 16.796875,38.78125 Q 15.921875,32.171875 15.921875,25 q 0,-31.78125 16.984375,-48.296875 q 0.296875,-0.28125 0.296875,-0.828125 q 0,-0.234375 -0.265625,-0.546875 Q 32.671875,-25 32.421875,-25 L 31.5,-25 q -0.5,0 -0.5,0.1875" />
      <path
         style="stroke-linecap:butt;stroke-linejoin:round;stroke-miterlimit:1"
         id="Cmr10-29"
         d="m 6.5,-25 q -0.890625,0 -0.890625,0.875 q 0,0.4375 0.203125,0.640625 Q 22.90625,-6.78125 22.90625,25 Q 22.90625,56.78125 6,73.296875 Q 5.609375,73.53125 5.609375,74.125 q 0,0.34375 0.265625,0.609375 Q 6.15625,75 6.5,75 l 0.921875,0 Q 7.71875,75 7.90625,74.8125 Q 15.09375,69.140625 19.875,61.03125 q 4.78125,-8.09375 7,-17.28125 Q 29.109375,34.578125 29.109375,25 q 0,-7.078125 -1.203125,-13.9375 Q 26.703125,4.203125 24.09375,-2.453125 Q 21.484375,-9.125 17.484375,-14.765625 q -4,-5.640625 -9.578125,-10.046875 Q 7.71875,-25 7.421875,-25 Z" />
      <path
         style="stroke-linecap:butt;stroke-linejoin:round;stroke-miterlimit:1"
         id="Cmr10-6f"
         d="m 25,-1.125 q -6,0 -11.140625,3.046875 q -5.125,3.0625 -8.109375,8.1875 q -2.96875,5.125 -2.96875,11.1875 q 0,4.578125 1.640625,8.828125 q 1.640625,4.25 4.6875,7.59375 q 3.046875,3.34375 7.09375,5.21875 Q 20.265625,44.828125 25,44.828125 q 6.15625,0 11.203125,-3.25 q 5.0625,-3.25 7.984375,-8.703125 Q 47.125,27.4375 47.125,21.296875 Q 47.125,15.28125 44.140625,10.125 Q 41.15625,4.984375 36.046875,1.921875 Q 30.953125,-1.125 25,-1.125 m 0,2.9375 q 8.015625,0 10.6875,5.796875 q 2.6875,5.8125 2.6875,14.796875 q 0,5.03125 -0.53125,8.328125 Q 37.3125,34.03125 35.5,36.71875 Q 34.375,38.375 32.640625,39.625 q -1.734375,1.25 -3.671875,1.90625 Q 27.046875,42.1875 25,42.1875 q -3.125,0 -5.9375,-1.421875 q -2.796875,-1.40625 -4.65625,-4.046875 q -1.859375,-2.828125 -2.375,-6.234375 q -0.5,-3.390625 -0.5,-8.078125 q 0,-5.609375 0.96875,-10.078125 q 0.984375,-4.46875 3.9375,-7.5 Q 19.390625,1.8125 25,1.8125" />
      <path
         style="stroke-linecap:butt;stroke-linejoin:round;stroke-miterlimit:1"
         id="Cmmi10-4e"
         d="M 4.6875,0 Q 3.71875,0 3.71875,1.3125 q 0.046875,0.25 0.1875,0.859375 Q 4.046875,2.78125 4.3125,3.140625 q 0.28125,0.375 0.671875,0.375 q 9.5625,0 11.125,6.109375 L 29.6875,64.3125 q -2.78125,0.484375 -8.78125,0.484375 q -0.984375,0 -0.984375,1.3125 q 0.04687,0.25 0.1875,0.859375 q 0.15625,0.609375 0.421875,0.96875 q 0.265625,0.375 0.65625,0.375 l 17.296875,0 q 0.71875,0 0.921875,-0.640625 l 22.21875,-52.875 l 11.078125,44.28125 q 0.203125,1.078125 0.203125,1.515625 q 0,4.203125 -7.71875,4.203125 q -0.984375,0 -0.984375,1.3125 q 0.34375,1.28125 0.53125,1.734375 q 0.203125,0.46875 1.1875,0.46875 l 21.390625,0 q 0.96875,0 0.96875,-1.3125 Q 88.23438,66.75 88.078125,66.140625 Q 87.9375,65.53125 87.671875,65.15625 Q 87.40625,64.796875 87.015625,64.796875 Q 77.4375,64.796875 75.875,58.6875 L 61.53125,0.875 Q 61.1875,0 60.5,0 l -1.21875,0 q -0.6875,0 -0.875,0.6875 l -25.5,60.5 l -0.1875,0.625 q -0.203125,0.203125 -0.203125,0.296875 L 19.28125,9.1875 Q 19.1875,8.9375 19.140625,8.5625 Q 19.09375,8.203125 19,7.71875 Q 19,5.125 21.234375,4.3125 q 2.25,-0.796875 5.578125,-0.796875 q 0.96875,0 0.96875,-1.3125 Q 27.4375,0.828125 27.1875,0.40625 Q 26.953125,0 26.125,0 Z" />
      <path
         style="stroke-linecap:butt;stroke-linejoin:round;stroke-miterlimit:1"
         id="Cmr10-6c"
         d="m 3.078125,0 l 0,3.515625 q 3.421875,0 5.609375,0.53125 Q 10.890625,4.59375 10.890625,6.6875 l 0,52.5 q 0,2.671875 -0.8125,3.875 q -0.796875,1.203125 -2.3125,1.46875 Q 6.25,64.796875 3.078125,64.796875 l 0,3.515625 l 14.84375,1.078125 l 0,-62.703125 q 0,-2.09375 2.1875,-2.640625 Q 22.3125,3.515625 25.6875,3.515625 L 25.6875,0 Z" />
      <path
         style="stroke-linecap:butt;stroke-linejoin:round;stroke-miterlimit:1"
         id="Cmmi10-46"
         d="M 4.6875,0 Q 3.71875,0 3.71875,1.3125 q 0.046875,0.25 0.1875,0.859375 Q 4.046875,2.78125 4.3125,3.140625 q 0.28125,0.375 0.671875,0.375 q 6.09375,0 8.5,0.6875 q 1.3125,0.4375 1.890625,2.6875 L 29.109375,61.8125 q 0.1875,0.984375 0.1875,1.375 q 0,1.078125 -1.21875,1.21875 q -1.859375,0.390625 -7.171875,0.390625 q -0.984375,0 -0.984375,1.3125 q 0.04687,0.25 0.1875,0.859375 q 0.15625,0.609375 0.421875,0.96875 q 0.265625,0.375 0.65625,0.375 l 52.84375,0 Q 75,68.3125 75,67 L 72.609375,46.296875 q 0,-0.296875 -0.34375,-0.59375 q -0.34375,-0.296875 -0.6875,-0.296875 l -0.875,0 q -1.03125,0 -1.03125,1.28125 q 0.640625,4.53125 0.640625,7.421875 q 0,4.96875 -2.15625,7.3125 q -2.140625,2.34375 -5.421875,2.859375 q -3.265625,0.515625 -9.015625,0.515625 l -10.703125,0 q -2.734375,0 -3.609375,-0.46875 Q 38.53125,63.875 37.796875,61.375 l -6.40625,-25.484375 l 7.53125,0 q 3.703125,0 6,0.390625 q 2.296875,0.390625 3.8125,1.515625 q 1.515625,1.125 2.515625,3.25 q 1,2.125 1.828125,5.640625 q 0.296875,0.921875 1.03125,0.921875 l 0.875,0 Q 56,47.609375 56,46.296875 l -6.09375,-24.71875 q -0.4375,-0.875 -1.03125,-0.875 l -0.875,0 q -0.984375,0 -0.984375,1.3125 q 0.25,1.03125 0.390625,1.71875 q 0.15625,0.6875 0.375,1.96875 Q 48,27 48,27.984375 q 0,2.875 -2.546875,3.65625 q -2.53125,0.78125 -6.640625,0.78125 l -8.203125,0 L 24.125,6.5 q -0.25,-0.984375 -0.25,-0.984375 q 0,-1.171875 0.734375,-1.3125 q 2.59375,-0.6875 10.203125,-0.6875 q 0.984375,0 0.984375,-1.3125 Q 35.453125,0.78125 35.25,0.390625 Q 35.0625,0 34.078125,0 Z" />
      <path
         style="stroke-linecap:butt;stroke-linejoin:round;stroke-miterlimit:1"
         id="Cmr10-30"
         d="m 25,-2.203125 q -12.25,0 -16.671875,10.078125 Q 3.90625,17.96875 3.90625,31.890625 q 0,8.6875 1.578125,16.34375 Q 7.078125,55.90625 11.78125,61.25 Q 16.5,66.609375 25,66.609375 q 6.59375,0 10.78125,-3.234375 q 4.203125,-3.21875 6.40625,-8.328125 q 2.203125,-5.09375 3,-10.9375 Q 46,38.28125 46,31.890625 q 0,-8.59375 -1.59375,-16.09375 q -1.578125,-7.5 -6.21875,-12.75 q -4.640625,-5.25 -13.1875,-5.25 m 0,2.59375 q 5.5625,0 8.296875,5.703125 q 2.734375,5.71875 3.375,12.65625 Q 37.3125,25.6875 37.3125,33.5 q 0,7.515625 -0.640625,13.859375 q -0.640625,6.359375 -3.359375,11.5 Q 30.609375,64.015625 25,64.015625 q -5.65625,0 -8.390625,-5.1875 q -2.734375,-5.171875 -3.375,-11.5 Q 12.59375,41.015625 12.59375,33.5 q 0,-5.5625 0.265625,-10.5 q 0.28125,-4.9375 1.453125,-10.1875 q 1.171875,-5.25 3.78125,-8.84375 Q 20.703125,0.390625 25,0.390625" />
      <path
         style="stroke-linecap:butt;stroke-linejoin:round;stroke-miterlimit:1"
         id="Cmmi10-65"
         d="m 20.125,-1.125 q -4.796875,0 -8.390625,2.484375 q -3.578125,2.5 -5.46875,6.71875 Q 4.390625,12.3125 4.390625,17 q 0,7.125 3.59375,13.390625 q 3.59375,6.28125 9.734375,10.03125 Q 23.875,44.1875 30.90625,44.1875 q 4.296875,0 7.5,-2.21875 q 3.203125,-2.21875 3.203125,-6.375 q 0,-5.765625 -4.59375,-8.578125 Q 32.421875,24.21875 26.65625,23.5625 q -5.75,-0.65625 -12.734375,-0.65625 l -0.296875,0 Q 12.015625,16.9375 12.015625,12.703125 Q 12.015625,8.25 14.0625,4.875 q 2.046875,-3.359375 6.25,-3.359375 q 5.953125,0 11.4375,2.734375 q 5.5,2.734375 8.96875,7.5625 q 0.296875,0.296875 0.78125,0.296875 q 0.5,0 1,-0.5625 Q 43.015625,10.984375 43.015625,10.5 q 0,-0.390625 -0.1875,-0.59375 q -3.671875,-5.125 -9.875,-8.078125 Q 26.765625,-1.125 20.125,-1.125 m -5.921875,26.609375 q 5.8125,0 10.75,0.53125 q 4.9375,0.546875 8.9375,2.71875 q 4,2.171875 4,6.765625 q 0,1.859375 -1.03125,3.25 q -1.015625,1.390625 -2.65625,2.125 Q 32.5625,41.609375 30.8125,41.609375 q -4.25,0 -7.640625,-2.296875 q -3.390625,-2.296875 -5.59375,-5.984375 q -2.203125,-3.6875 -3.375,-7.84375" />
      <path
         style="stroke-linecap:butt;stroke-linejoin:round;stroke-miterlimit:1"
         id="Cmmi10-4c"
         d="M 4.6875,0 Q 3.71875,0 3.71875,1.3125 q 0.046875,0.25 0.1875,0.859375 Q 4.046875,2.78125 4.3125,3.140625 q 0.28125,0.375 0.671875,0.375 q 6.09375,0 8.5,0.6875 q 1.3125,0.4375 1.890625,2.6875 L 29.109375,61.8125 q 0.1875,0.984375 0.1875,1.375 q 0,1.078125 -1.21875,1.21875 q -1.859375,0.390625 -7.171875,0.390625 q -0.984375,0 -0.984375,1.3125 q 0.34375,1.28125 0.53125,1.734375 q 0.203125,0.46875 1.125,0.46875 l 29.546875,0 Q 52,68.3125 52,67 q -0.140625,-1.03125 -0.34375,-1.625 q -0.1875,-0.578125 -0.96875,-0.578125 q -7.375,0 -9.859375,-0.484375 Q 38.375,63.875 37.796875,61.375 L 24.125,6.5 Q 23.6875,5.28125 23.6875,4.296875 q 0,-0.78125 3.40625,-0.78125 l 9.28125,0 q 7.859375,0 12.734375,3.125 Q 54,9.765625 56.34375,13.6875 q 2.34375,3.9375 3.921875,8.15625 q 1.59375,4.234375 2.328125,4.375 l 0.890625,0 Q 64.5,26.21875 64.5,24.90625 L 55.609375,0.6875 Q 55.46875,0 54.6875,0 Z" />
      <path
         style="stroke-linecap:butt;stroke-linejoin:round;stroke-miterlimit:1"
         id="ArialMT-73"
         d="m 3.078125,15.484375 l 8.6875,1.359375 Q 12.5,11.625 15.84375,8.84375 Q 19.1875,6.0625 25.203125,6.0625 q 6.046875,0 8.96875,2.453125 q 2.9375,2.46875 2.9375,5.796875 q 0,2.96875 -2.59375,4.6875 Q 32.71875,20.171875 25.53125,21.96875 Q 15.875,24.421875 12.140625,26.203125 Q 8.40625,27.984375 6.46875,31.125 q -1.921875,3.15625 -1.921875,6.96875 q 0,3.453125 1.578125,6.40625 q 1.59375,2.96875 4.328125,4.921875 q 2.046875,1.5 5.578125,2.546875 q 3.546875,1.0625 7.609375,1.0625 q 6.09375,0 10.703125,-1.765625 q 4.625,-1.75 6.8125,-4.765625 q 2.203125,-3 3.03125,-8.015625 L 35.59375,37.3125 q -0.578125,4 -3.390625,6.234375 q -2.8125,2.25 -7.9375,2.25 q -6.046875,0 -8.640625,-2 q -2.59375,-2 -2.59375,-4.6875 q 0,-1.703125 1.078125,-3.078125 q 1.078125,-1.40625 3.375,-2.34375 q 1.3125,-0.484375 7.765625,-2.234375 q 9.328125,-2.5 13,-4.09375 Q 41.9375,25.78125 44.03125,22.75 q 2.109375,-3.015625 2.109375,-7.515625 q 0,-4.390625 -2.5625,-8.28125 q -2.5625,-3.875 -7.40625,-6 q -4.828125,-2.125 -10.921875,-2.125 q -10.109375,0 -15.40625,4.203125 Q 4.546875,7.234375 3.078125,15.484375" />
      <path
         style="stroke-linecap:butt;stroke-linejoin:round;stroke-miterlimit:1"
         d=""
         id="ArialMT-20" />
    </defs>
    <defs
       id="defs1976">
      <path
         style="stroke-linecap:butt;stroke-linejoin:round;stroke-miterlimit:1"
         id="Arial-BoldMT-73"
         d="m 2.34375,14.796875 l 13.765625,2.09375 q 0.890625,-4 3.5625,-6.078125 q 2.6875,-2.078125 7.53125,-2.078125 q 5.3125,0 8,1.953125 q 1.8125,1.375 1.8125,3.671875 q 0,1.5625 -0.984375,2.578125 Q 35.015625,17.921875 31.453125,18.75 Q 14.84375,22.40625 10.40625,25.4375 Q 4.25,29.640625 4.25,37.109375 q 0,6.734375 5.3125,11.328125 q 5.328125,4.59375 16.515625,4.59375 q 10.640625,0 15.8125,-3.46875 q 5.1875,-3.46875 7.140625,-10.25 L 36.078125,36.921875 q -0.828125,3.015625 -3.15625,4.625 q -2.3125,1.625 -6.609375,1.625 q -5.40625,0 -7.75,-1.515625 Q 17,40.578125 17,38.875 q 0,-1.46875 1.359375,-2.5 q 1.859375,-1.359375 12.8125,-3.859375 q 10.96875,-2.484375 15.3125,-6.09375 Q 50.78125,22.75 50.78125,16.21875 q 0,-7.140625 -5.953125,-12.265625 q -5.953125,-5.125 -17.625,-5.125 q -10.59375,0 -16.78125,4.296875 Q 4.25,7.421875 2.34375,14.796875" />
      <path
         style="stroke-linecap:butt;stroke-linejoin:round;stroke-miterlimit:1"
         id="Arial-BoldMT-72"
         d="M 20.3125,0 L 6.59375,0 l 0,51.859375 l 12.75,0 l 0,-7.375 q 3.265625,5.21875 5.875,6.875 q 2.609375,1.671875 5.9375,1.671875 q 4.6875,0 9.03125,-2.59375 l -4.25,-11.953125 Q 32.46875,40.71875 29.5,40.71875 q -2.890625,0 -4.890625,-1.59375 q -2,-1.578125 -3.15625,-5.734375 Q 20.3125,29.25 20.3125,16.015625 Z" />
      <path
         style="stroke-linecap:butt;stroke-linejoin:round;stroke-miterlimit:1"
         id="Arial-BoldMT-65"
         d="M 37.203125,16.5 L 50.875,14.203125 Q 48.25,6.6875 42.546875,2.75 q -5.6875,-3.921875 -14.21875,-3.921875 q -13.53125,0 -20.03125,8.84375 q -5.125,7.078125 -5.125,17.859375 q 0,12.890625 6.734375,20.1875 q 6.75,7.3125 17.046875,7.3125 q 11.578125,0 18.265625,-7.640625 Q 51.90625,37.75 51.609375,21.96875 l -34.375,0 q 0.15625,-6.09375 3.328125,-9.5 q 3.171875,-3.390625 7.90625,-3.390625 q 3.21875,0 5.40625,1.75 Q 36.078125,12.59375 37.203125,16.5 m 0.78125,13.875 q -0.140625,5.953125 -3.078125,9.046875 q -2.921875,3.109375 -7.125,3.109375 q -4.484375,0 -7.421875,-3.265625 Q 17.4375,35.984375 17.484375,30.375 Z" />
      <path
         style="stroke-linecap:butt;stroke-linejoin:round;stroke-miterlimit:1"
         id="Arial-BoldMT-61"
         d="m 17.4375,36.03125 l -12.453125,2.25 q 2.09375,7.515625 7.21875,11.125 q 5.125,3.625 15.234375,3.625 q 9.1875,0 13.671875,-2.171875 q 4.5,-2.171875 6.328125,-5.515625 Q 49.265625,42 49.265625,33.0625 L 49.125,17.046875 q 0,-6.84375 0.65625,-10.09375 Q 50.4375,3.71875 52.25,0 L 38.671875,0 q -0.53125,1.375 -1.3125,4.046875 q -0.34375,1.234375 -0.5,1.625 Q 33.34375,2.25 29.34375,0.53125 q -4,-1.703125 -8.546875,-1.703125 q -8,0 -12.625,4.34375 Q 3.5625,7.515625 3.5625,14.15625 q 0,4.40625 2.09375,7.84375 q 2.109375,3.4375 5.890625,5.265625 q 3.78125,1.84375 10.921875,3.203125 q 9.609375,1.8125 13.328125,3.375 l 0,1.359375 q 0,3.953125 -1.953125,5.640625 q -1.953125,1.6875 -7.375,1.6875 q -3.671875,0 -5.71875,-1.4375 q -2.046875,-1.4375 -3.3125,-5.0625 m 18.359375,-11.125 Q 33.15625,24.03125 27.4375,22.796875 Q 21.734375,21.578125 19.96875,20.40625 Q 17.28125,18.5 17.28125,15.578125 q 0,-2.875 2.140625,-4.984375 Q 21.578125,8.5 24.90625,8.5 q 3.703125,0 7.078125,2.4375 Q 34.46875,12.796875 35.25,15.484375 q 0.546875,1.75 0.546875,6.6875 z" />
      <path
         style="stroke-linecap:butt;stroke-linejoin:round;stroke-miterlimit:1"
         id="Arial-BoldMT-74"
         d="m 30.953125,51.859375 l 0,-10.9375 l -9.375,0 l 0,-20.90625 q 0,-6.34375 0.265625,-7.390625 q 0.28125,-1.046875 1.234375,-1.734375 q 0.953125,-0.6875 2.3125,-0.6875 q 1.90625,0 5.515625,1.328125 L 32.078125,0.875 q -4.78125,-2.046875 -10.84375,-2.046875 q -3.703125,0 -6.6875,1.234375 q -2.96875,1.25 -4.359375,3.234375 Q 8.796875,5.28125 8.25,8.640625 Q 7.8125,11.03125 7.8125,18.3125 l 0,22.609375 l -6.296875,0 l 0,10.9375 l 6.296875,0 l 0,10.296875 l 13.765625,8.015625 l 0,-18.3125 z" />
      <path
         style="stroke-linecap:butt;stroke-linejoin:round;stroke-miterlimit:1"
         id="Arial-BoldMT-67"
         d="m 5.90625,-3.421875 l 15.671875,-1.90625 q 0.390625,-2.734375 1.8125,-3.75 q 1.953125,-1.46875 6.15625,-1.46875 q 5.359375,0 8.046875,1.609375 q 1.8125,1.078125 2.734375,3.46875 q 0.640625,1.703125 0.640625,6.296875 l 0,7.578125 Q 34.8125,0 25.4375,0 Q 14.984375,0 8.890625,8.84375 q -4.78125,6.984375 -4.78125,17.375 q 0,13.046875 6.265625,19.921875 q 6.28125,6.890625 15.609375,6.890625 q 9.609375,0 15.859375,-8.453125 l 0,7.28125 l 12.84375,0 l 0,-46.53125 q 0,-9.1875 -1.515625,-13.71875 q -1.515625,-4.546875 -4.25,-7.125 q -2.734375,-2.59375 -7.296875,-4.0625 q -4.5625,-1.46875 -11.546875,-1.46875 q -13.1875,0 -18.703125,4.515625 q -5.515625,4.515625 -5.515625,11.453125 q 0,0.6875 0.046875,1.65625 M 18.171875,27 q 0,-8.25 3.1875,-12.09375 Q 24.5625,11.078125 29.25,11.078125 q 5.03125,0 8.5,3.9375 q 3.46875,3.9375 3.46875,11.640625 q 0,8.0625 -3.328125,11.96875 Q 34.578125,42.53125 29.5,42.53125 q -4.9375,0 -8.140625,-3.84375 Q 18.171875,34.859375 18.171875,27" />
      <path
         style="stroke-linecap:butt;stroke-linejoin:round;stroke-miterlimit:1"
         id="Arial-BoldMT-54"
         d="m 23.390625,0 l 0,59.46875 l -21.234375,0 l 0,12.109375 l 56.875,0 l 0,-12.109375 l -21.1875,0 L 37.84375,0 Z" />
    </defs>
    <defs
       id="defs3848">
      <path
         style="stroke-linecap:butt;stroke-linejoin:round;stroke-miterlimit:1"
         id="Arial-BoldMT-75"
         d="m 41.3125,0 l 0,7.765625 Q 38.484375,3.609375 33.859375,1.21875 Q 29.25,-1.171875 24.125,-1.171875 q -5.234375,0 -9.390625,2.296875 q -4.140625,2.296875 -6,6.4375 q -1.84375,4.15625 -1.84375,11.484375 l 0,32.8125 l 13.71875,0 l 0,-23.828125 q 0,-10.9375 0.75,-13.40625 Q 22.125,12.15625 24.125,10.71875 q 2,-1.4375 5.078125,-1.4375 q 3.515625,0 6.296875,1.921875 q 2.78125,1.9375 3.796875,4.78125 q 1.03125,2.859375 1.03125,14 l 0,21.875 l 13.71875,0 L 54.046875,0 Z" />
      <path
         style="stroke-linecap:butt;stroke-linejoin:round;stroke-miterlimit:1"
         id="Arial-BoldMT-63"
         d="M 52.390625,36.53125 L 38.875,34.078125 q -0.6875,4.0625 -3.109375,6.109375 Q 33.34375,42.234375 29.5,42.234375 q -5.140625,0 -8.1875,-3.546875 Q 18.265625,35.15625 18.265625,26.859375 q 0,-9.234375 3.09375,-13.046875 Q 24.46875,10.015625 29.6875,10.015625 q 3.90625,0 6.390625,2.21875 q 2.5,2.21875 3.515625,7.640625 L 53.078125,17.578125 Q 50.984375,8.296875 45.015625,3.5625 Q 39.0625,-1.171875 29.046875,-1.171875 q -11.375,0 -18.140625,7.171875 q -6.75,7.1875 -6.75,19.875 q 0,12.84375 6.78125,20 q 6.78125,7.15625 18.359375,7.15625 q 9.46875,0 15.0625,-4.078125 Q 49.953125,44.875 52.390625,36.53125" />
      <path
         style="stroke-linecap:butt;stroke-linejoin:round;stroke-miterlimit:1"
         id="Arial-BoldMT-6f"
         d="M 4,26.65625 Q 4,33.5 7.375,39.890625 q 3.375,6.40625 9.546875,9.765625 q 6.171875,3.375 13.796875,3.375 q 11.765625,0 19.28125,-7.640625 Q 57.515625,37.75 57.515625,26.078125 q 0,-11.765625 -7.59375,-19.515625 Q 42.328125,-1.171875 30.8125,-1.171875 q -7.125,0 -13.59375,3.21875 Q 10.75,5.28125 7.375,11.5 Q 4,17.71875 4,26.65625 m 14.0625,-0.734375 q 0,-7.703125 3.65625,-11.8125 q 3.671875,-4.09375 9.046875,-4.09375 q 5.375,0 9,4.09375 Q 43.40625,18.21875 43.40625,26.03125 q 0,7.609375 -3.640625,11.703125 q -3.625,4.109375 -9,4.109375 q -5.375,0 -9.046875,-4.109375 q -3.65625,-4.09375 -3.65625,-11.8125" />
      <path
         style="stroke-linecap:butt;stroke-linejoin:round;stroke-miterlimit:1"
         id="Arial-BoldMT-53"
         d="m 3.609375,23.296875 l 14.0625,1.359375 q 1.28125,-7.078125 5.15625,-10.40625 q 3.875,-3.3125 10.46875,-3.3125 q 6.984375,0 10.515625,2.953125 q 3.546875,2.953125 3.546875,6.90625 q 0,2.546875 -1.484375,4.328125 q -1.484375,1.78125 -5.203125,3.09375 q -2.53125,0.890625 -11.5625,3.125 q -11.625,2.890625 -16.3125,7.078125 q -6.59375,5.921875 -6.59375,14.40625 q 0,5.46875 3.09375,10.234375 q 3.109375,4.765625 8.9375,7.25 q 5.84375,2.484375 14.09375,2.484375 q 13.46875,0 20.28125,-5.90625 q 6.8125,-5.90625 7.15625,-15.765625 L 45.3125,50.484375 Q 44.390625,56 41.328125,58.421875 Q 38.28125,60.84375 32.171875,60.84375 Q 25.875,60.84375 22.3125,58.25 q -2.296875,-1.65625 -2.296875,-4.4375 q 0,-2.546875 2.15625,-4.34375 q 2.734375,-2.296875 13.28125,-4.796875 Q 46,42.1875 51.046875,39.515625 q 5.0625,-2.65625 7.90625,-7.265625 Q 61.8125,27.640625 61.8125,20.84375 q 0,-6.140625 -3.421875,-11.515625 q -3.40625,-5.375 -9.65625,-7.984375 q -6.25,-2.609375 -15.578125,-2.609375 Q 19.578125,-1.265625 12.296875,5 q -7.265625,6.28125 -8.6875,18.296875" />
    </defs>
    <defs
       id="defs2004">
      <path
         d="M 0,0 L -4,0"
         id="mc7540e1e84"
         style="stroke:#000000;stroke-width:0.5;stroke-linecap:butt;stroke-linejoin:round;stroke-miterlimit:1" />
    </defs>
    <defs
       id="defs42">
      <path
         d="M -0.140625,0 L 27.34375,71.578125 l 10.203125,0 L 66.84375,0 L 56.0625,0 l -8.359375,21.6875 l -29.921875,0 L 9.90625,0 Z m 20.65625,29.390625 l 24.265625,0 L 37.3125,49.21875 Q 33.890625,58.25 32.234375,64.0625 Q 30.859375,57.171875 28.375,50.390625 Z"
         id="ArialMT-41"
         style="stroke-linecap:butt;stroke-linejoin:round;stroke-miterlimit:1" />
      <path
         d="m 40.578125,0 l 0,7.625 Q 34.515625,-1.171875 24.125,-1.171875 q -4.59375,0 -8.578125,1.75 Q 11.578125,2.34375 9.640625,5 Q 7.71875,7.671875 6.9375,11.53125 q -0.546875,2.578125 -0.546875,8.203125 l 0,32.125 l 8.796875,0 l 0,-28.765625 q 0,-6.875 0.53125,-9.28125 Q 16.546875,10.359375 19.234375,8.375 Q 21.921875,6.390625 25.875,6.390625 q 3.953125,0 7.421875,2.03125 q 3.46875,2.03125 4.90625,5.515625 q 1.453125,3.5 1.453125,10.140625 l 0,27.78125 l 8.78125,0 L 48.4375,0 Z"
         id="ArialMT-75"
         style="stroke-linecap:butt;stroke-linejoin:round;stroke-miterlimit:1" />
      <path
         d="m 58.796875,25.09375 l 9.46875,-2.390625 Q 65.28125,11.03125 57.546875,4.90625 Q 49.8125,-1.21875 38.625,-1.21875 q -11.578125,0 -18.828125,4.703125 q -7.25,4.71875 -11.03125,13.65625 q -3.78125,8.9375 -3.78125,19.1875 q 0,11.1875 4.265625,19.5 q 4.28125,8.328125 12.15625,12.640625 q 7.890625,4.328125 17.359375,4.328125 q 10.75,0 18.0625,-5.46875 q 7.328125,-5.46875 10.21875,-15.375 L 57.71875,49.75 q -2.5,7.8125 -7.234375,11.375 Q 45.75,64.703125 38.578125,64.703125 q -8.25,0 -13.796875,-3.96875 q -5.546875,-3.953125 -7.796875,-10.625 Q 14.75,43.453125 14.75,36.375 q 0,-9.125 2.65625,-15.9375 Q 20.0625,13.625 25.671875,10.25 q 5.625,-3.359375 12.171875,-3.359375 q 7.953125,0 13.46875,4.578125 q 5.53125,4.59375 7.484375,13.625"
         id="ArialMT-43"
         style="stroke-linecap:butt;stroke-linejoin:round;stroke-miterlimit:1" />
      <path
         d="m 7.328125,0 l 0,71.578125 l 26.859375,0 q 8.203125,0 13.15625,-2.171875 q 4.953125,-2.171875 7.75,-6.6875 q 2.8125,-4.515625 2.8125,-9.453125 q 0,-4.578125 -2.484375,-8.640625 Q 52.9375,40.578125 47.90625,38.09375 q 6.484375,-1.90625 9.96875,-6.5 Q 61.375,27 61.375,20.75 q 0,-5.03125 -2.125,-9.359375 Q 57.125,7.078125 54,4.734375 Q 50.875,2.390625 46.15625,1.1875 Q 41.453125,0 34.625,0 Z m 9.46875,41.5 l 15.484375,0 q 6.296875,0 9.03125,0.828125 q 3.609375,1.078125 5.4375,3.5625 q 1.828125,2.5 1.828125,6.265625 q 0,3.5625 -1.703125,6.265625 q -1.703125,2.71875 -4.890625,3.71875 q -3.171875,1 -10.875,1 l -14.3125,0 z m 0,-33.046875 l 17.828125,0 q 4.578125,0 6.4375,0.34375 q 3.28125,0.578125 5.46875,1.9375 q 2.203125,1.375 3.609375,3.984375 Q 51.5625,17.328125 51.5625,20.75 q 0,4 -2.046875,6.953125 q -2.046875,2.96875 -5.6875,4.15625 Q 40.1875,33.0625 33.34375,33.0625 l -16.546875,0 z"
         id="ArialMT-42"
         style="stroke-linecap:butt;stroke-linejoin:round;stroke-miterlimit:1" />
      <path
         d="m 7.71875,0 l 0,71.578125 l 27,0 q 7.125,0 10.890625,-0.671875 Q 50.875,70.015625 54.4375,67.546875 q 3.578125,-2.453125 5.75,-6.90625 q 2.171875,-4.4375 2.171875,-9.765625 q 0,-9.125 -5.8125,-15.453125 q -5.8125,-6.3125 -21,-6.3125 l -18.359375,0 L 17.1875,0 Z m 9.46875,37.546875 l 18.5,0 q 9.1875,0 13.046875,3.421875 q 3.859375,3.421875 3.859375,9.625 q 0,4.484375 -2.28125,7.671875 Q 48.046875,61.46875 44.34375,62.5 Q 41.9375,63.140625 35.5,63.140625 l -18.3125,0 z"
         id="ArialMT-50"
         style="stroke-linecap:butt;stroke-linejoin:round;stroke-miterlimit:1" />
    </defs>
    <defs
       id="defs34">
      <path
         d="M 0,0 L 0,-4"
         id="mb713d06d02"
         style="stroke:#000000;stroke-width:0.5;stroke-linecap:butt;stroke-linejoin:round;stroke-miterlimit:1" />
    </defs>
    <defs
       id="defs68">
      <path
         d="m 7.859375,0 l 0,71.578125 l 31.734375,0 q 9.578125,0 14.546875,-1.9375 q 4.984375,-1.921875 7.96875,-6.8125 q 2.984375,-4.875 2.984375,-10.78125 q 0,-7.609375 -4.9375,-12.84375 Q 55.21875,33.984375 44.921875,32.5625 Q 48.6875,30.765625 50.640625,29 Q 54.78125,25.203125 58.5,19.484375 L 70.953125,0 L 59.03125,0 L 49.5625,14.890625 Q 45.40625,21.34375 42.71875,24.75 q -2.671875,3.421875 -4.796875,4.78125 q -2.125,1.375 -4.328125,1.921875 q -1.609375,0.328125 -5.265625,0.328125 l -11,0 l 0,-31.78125 z m 9.46875,39.984375 l 20.375,0 q 6.484375,0 10.140625,1.34375 q 3.671875,1.34375 5.578125,4.296875 q 1.90625,2.953125 1.90625,6.421875 q 0,5.078125 -3.6875,8.34375 q -3.6875,3.28125 -11.65625,3.28125 l -22.65625,0 z"
         id="ArialMT-52"
         style="stroke-linecap:butt;stroke-linejoin:round;stroke-miterlimit:1" />
      <path
         d="m 25.921875,0 l 0,63.140625 l -23.578125,0 l 0,8.4375 l 56.734375,0 l 0,-8.4375 l -23.671875,0 L 35.40625,0 Z"
         id="ArialMT-54"
         style="stroke-linecap:butt;stroke-linejoin:round;stroke-miterlimit:1" />
    </defs>
    <defs
       id="defs89">
      <path
         d="m 7.421875,0 l 0,71.578125 l 14.265625,0 L 38.625,20.90625 q 2.34375,-7.09375 3.421875,-10.609375 q 1.21875,3.90625 3.796875,11.484375 l 17.140625,49.796875 l 12.75,0 L 75.734375,0 l -9.125,0 l 0,59.90625 L 45.796875,0 L 37.25,0 L 16.546875,60.9375 l 0,-60.9375 z"
         id="ArialMT-4d"
         style="stroke-linecap:butt;stroke-linejoin:round;stroke-miterlimit:1" />
    </defs>
    <defs
       id="defs109">
      <path
         d="m 7.328125,0 l 0,71.578125 l 9.46875,0 l 0,-63.125 l 35.25,0 l 0,-8.453125 z"
         id="ArialMT-4c"
         style="stroke-linecap:butt;stroke-linejoin:round;stroke-miterlimit:1" />
    </defs>
    <defs
       id="defs129">
      <path
         d="m 4.203125,18.890625 l 8.78125,1.171875 Q 14.5,12.59375 18.140625,9.296875 Q 21.78125,6 27,6 q 6.203125,0 10.46875,4.296875 Q 41.75,14.59375 41.75,20.953125 q 0,6.046875 -3.953125,9.96875 q -3.953125,3.9375 -10.0625,3.9375 q -2.484375,0 -6.203125,-0.96875 l 0.984375,7.71875 Q 23.390625,41.5 23.921875,41.5 q 5.625,0 10.109375,2.921875 q 4.5,2.9375 4.5,9.046875 q 0,4.828125 -3.28125,8 q -3.265625,3.1875 -8.4375,3.1875 q -5.125,0 -8.546875,-3.234375 Q 14.84375,58.203125 13.875,51.765625 l -8.796875,1.5625 q 1.609375,8.828125 7.3125,13.6875 Q 18.109375,71.875 26.609375,71.875 q 5.859375,0 10.78125,-2.515625 Q 42.328125,66.84375 44.9375,62.5 q 2.625,-4.34375 2.625,-9.234375 q 0,-4.625 -2.5,-8.4375 q -2.484375,-3.8125 -7.359375,-6.0625 Q 44.046875,37.3125 47.5625,32.6875 q 3.515625,-4.609375 3.515625,-11.546875 q 0,-9.375 -6.84375,-15.890625 Q 37.40625,-1.265625 26.953125,-1.265625 q -9.421875,0 -15.65625,5.609375 q -6.21875,5.625 -7.09375,14.546875"
         id="ArialMT-33"
         style="stroke-linecap:butt;stroke-linejoin:round;stroke-miterlimit:1" />
      <path
         d="m 7.90625,0 l 0,71.578125 l 51.765625,0 l 0,-8.4375 l -42.28125,0 l 0,-21.921875 l 39.59375,0 l 0,-8.40625 l -39.59375,0 l 0,-24.359375 l 43.9375,0 l 0,-8.453125 z"
         id="ArialMT-45"
         style="stroke-linecap:butt;stroke-linejoin:round;stroke-miterlimit:1" />
    </defs>
    <defs
       id="defs148">
      <path
         d="m 4.15625,35.296875 q 0,12.703125 2.609375,20.4375 q 2.609375,7.75 7.75,11.9375 Q 19.671875,71.875 27.484375,71.875 q 5.765625,0 10.109375,-2.328125 q 4.34375,-2.3125 7.171875,-6.6875 Q 47.609375,58.5 49.21875,52.21875 q 1.609375,-6.265625 1.609375,-16.921875 q 0,-12.59375 -2.59375,-20.328125 Q 45.65625,7.234375 40.5,3 Q 35.359375,-1.21875 27.484375,-1.21875 q -10.34375,0 -16.25,7.421875 q -7.078125,8.9375 -7.078125,29.09375 m 9.03125,0 q 0,-17.625 4.125,-23.46875 Q 21.4375,6 27.484375,6 q 6.0625,0 10.1875,5.859375 q 4.125,5.859375 4.125,23.4375 q 0,17.6875 -4.125,23.484375 q -4.125,5.8125 -10.28125,5.8125 q -6.046875,0 -9.671875,-5.125 Q 13.1875,52.9375 13.1875,35.296875"
         id="ArialMT-30"
         style="stroke-linecap:butt;stroke-linejoin:round;stroke-miterlimit:1" />
      <path
         d="m 37.25,0 l -8.78125,0 l 0,56 q -3.171875,-3.015625 -8.328125,-6.046875 q -5.15625,-3.03125 -9.25,-4.546875 l 0,8.5 q 7.375,3.46875 12.890625,8.390625 q 5.515625,4.9375 7.8125,9.578125 l 5.65625,0 z"
         id="ArialMT-31"
         style="stroke-linecap:butt;stroke-linejoin:round;stroke-miterlimit:1" />
    </defs>
    <defs
       id="defs167">
      <path
         d="m 4.828125,34.859375 q 0,17.828125 9.5625,27.90625 q 9.578125,10.09375 24.71875,10.09375 q 9.921875,0 17.875,-4.75 Q 64.9375,63.375 69.109375,54.90625 q 4.1875,-8.46875 4.1875,-19.21875 q 0,-10.875 -4.40625,-19.46875 Q 64.5,7.625 56.4375,3.203125 Q 48.390625,-1.21875 39.0625,-1.21875 q -10.109375,0 -18.078125,4.875 Q 13.03125,8.546875 8.921875,16.984375 q -4.09375,8.453125 -4.09375,17.875 M 14.59375,34.71875 q 0,-12.9375 6.953125,-20.390625 q 6.96875,-7.4375 17.46875,-7.4375 q 10.6875,0 17.59375,7.515625 Q 63.53125,21.921875 63.53125,35.75 q 0,8.734375 -2.953125,15.25 Q 57.625,57.515625 51.921875,61.109375 q -5.6875,3.59375 -12.765625,3.59375 q -10.046875,0 -17.3125,-6.921875 q -7.25,-6.90625 -7.25,-23.0625"
         id="ArialMT-4f"
         style="stroke-linecap:butt;stroke-linejoin:round;stroke-miterlimit:1" />
    </defs>
    <defs
       id="defs185">
      <path
         d="M 50.34375,8.453125 L 50.34375,0 L 3.03125,0 Q 2.9375,3.171875 4.046875,6.109375 Q 5.859375,10.9375 9.828125,15.625 Q 13.8125,20.3125 21.34375,26.46875 q 11.671875,9.5625 15.765625,15.15625 q 4.109375,5.59375 4.109375,10.578125 q 0,5.21875 -3.75,8.796875 q -3.734375,3.59375 -9.734375,3.59375 q -6.34375,0 -10.15625,-3.8125 Q 13.765625,56.984375 13.71875,50.25 L 4.6875,51.171875 q 0.921875,10.109375 6.96875,15.40625 Q 17.71875,71.875 27.9375,71.875 q 10.296875,0 16.296875,-5.71875 Q 50.25,60.453125 50.25,52 q 0,-4.296875 -1.765625,-8.453125 Q 46.734375,39.40625 42.65625,34.8125 Q 38.578125,30.21875 29.109375,22.21875 Q 21.1875,15.578125 18.9375,13.203125 q -2.234375,-2.359375 -3.703125,-4.75 z"
         id="ArialMT-32"
         style="stroke-linecap:butt;stroke-linejoin:round;stroke-miterlimit:1" />
    </defs>
    <defs
       id="defs203">
      <path
         d="M 28.171875,0 L 0.4375,71.578125 l 10.25,0 l 18.609375,-52 q 2.25,-6.25 3.765625,-11.71875 q 1.65625,5.859375 3.859375,11.71875 l 19.328125,52 l 9.671875,0 L 37.890625,0 Z"
         id="ArialMT-56"
         style="stroke-linecap:butt;stroke-linejoin:round;stroke-miterlimit:1" />
    </defs>
    <defs
       id="defs223">
      <path
         d="m 5.46875,16.546875 l 8.453125,0.78125 Q 14.984375,11.375 18.015625,8.6875 Q 21.046875,6 25.78125,6 q 4.046875,0 7.09375,1.859375 q 3.0625,1.859375 5.015625,4.953125 q 1.953125,3.109375 3.265625,8.375 q 1.328125,5.28125 1.328125,10.75 q 0,0.578125 -0.04687,1.75 Q 39.796875,29.5 35.234375,26.875 q -4.5625,-2.609375 -9.890625,-2.609375 q -8.890625,0 -15.046875,6.4375 q -6.140625,6.453125 -6.140625,17 q 0,10.890625 6.421875,17.53125 Q 17,71.875 26.65625,71.875 q 6.984375,0 12.765625,-3.765625 q 5.796875,-3.75 8.796875,-10.71875 q 3,-6.953125 3,-20.140625 q 0,-13.71875 -2.984375,-21.84375 Q 45.265625,7.28125 39.375,3.03125 q -5.875,-4.25 -13.78125,-4.25 q -8.40625,0 -13.734375,4.65625 Q 6.546875,8.109375 5.46875,16.546875 m 35.984375,31.59375 q 0,7.578125 -4.03125,12.015625 q -4.015625,4.4375 -9.6875,4.4375 q -5.859375,0 -10.203125,-4.78125 Q 13.1875,55.03125 13.1875,47.40625 q 0,-6.828125 4.125,-11.109375 q 4.125,-4.265625 10.171875,-4.265625 q 6.109375,0 10.03125,4.265625 q 3.9375,4.28125 3.9375,11.84375"
         id="ArialMT-39"
         style="stroke-linecap:butt;stroke-linejoin:round;stroke-miterlimit:1" />
    </defs>
    <defs
       id="defs254">
      <path
         d="M 17.671875,38.8125 Q 12.203125,40.828125 9.5625,44.53125 Q 6.9375,48.25 6.9375,53.421875 q 0,7.8125 5.609375,13.125 q 5.625,5.328125 14.9375,5.328125 q 9.375,0 15.09375,-5.453125 q 5.71875,-5.4375 5.71875,-13.25 q 0,-4.984375 -2.625,-8.671875 Q 43.0625,40.828125 37.75,38.8125 q 6.59375,-2.140625 10.03125,-6.9375 q 3.4375,-4.78125 3.4375,-11.421875 q 0,-9.171875 -6.5,-15.421875 q -6.484375,-6.25 -17.078125,-6.25 q -10.59375,0 -17.09375,6.265625 q -6.5,6.28125 -6.5,15.65625 q 0,6.984375 3.546875,11.6875 q 3.546875,4.71875 10.078125,6.421875 m -1.75,14.90625 q 0,-5.078125 3.265625,-8.3125 q 3.28125,-3.21875 8.5,-3.21875 q 5.078125,0 8.328125,3.1875 q 3.25,3.203125 3.25,7.84375 q 0,4.84375 -3.359375,8.140625 q -3.34375,3.296875 -8.3125,3.296875 q -5.03125,0 -8.359375,-3.234375 q -3.3125,-3.21875 -3.3125,-7.703125 M 13.09375,20.65625 q 0,-3.765625 1.78125,-7.28125 Q 16.65625,9.859375 20.171875,7.921875 Q 23.6875,6 27.734375,6 Q 34.03125,6 38.125,10.046875 q 4.109375,4.0625 4.109375,10.3125 q 0,6.34375 -4.21875,10.5 q -4.21875,4.15625 -10.578125,4.15625 q -6.203125,0 -10.28125,-4.109375 q -4.0625,-4.09375 -4.0625,-10.25"
         id="ArialMT-38"
         style="stroke-linecap:butt;stroke-linejoin:round;stroke-miterlimit:1" />
      <path
         d="m 14.703125,0 l -8.15625,0 l 0,71.578125 l 8.78125,0 l 0,-25.53125 q 5.578125,6.984375 14.21875,6.984375 q 4.78125,0 9.046875,-1.9375 Q 42.875,49.171875 45.625,45.671875 Q 48.390625,42.1875 49.953125,37.25 q 1.5625,-4.921875 1.5625,-10.546875 q 0,-13.328125 -6.59375,-20.609375 q -6.59375,-7.265625 -15.8125,-7.265625 q -9.1875,0 -14.40625,7.671875 z M 14.59375,26.3125 q 0,-9.3125 2.546875,-13.46875 Q 21.296875,6.0625 28.375,6.0625 q 5.75,0 9.953125,5 q 4.203125,5 4.203125,14.921875 q 0,10.15625 -4.03125,14.984375 q -4.03125,4.828125 -9.734375,4.828125 q -5.765625,0 -9.96875,-5 q -4.203125,-5 -4.203125,-14.484375"
         id="ArialMT-62"
         style="stroke-linecap:butt;stroke-linejoin:round;stroke-miterlimit:1" />
    </defs>
    <defs
       id="defs273">
      <path
         d="m 9.328125,0 l 0,71.578125 l 9.46875,0 L 18.796875,0 Z"
         id="ArialMT-49"
         style="stroke-linecap:butt;stroke-linejoin:round;stroke-miterlimit:1" />
    </defs>
    <defs
       id="defs291">
      <path
         d="M 40.4375,6.390625 Q 35.546875,2.25 31.03125,0.53125 q -4.515625,-1.703125 -9.6875,-1.703125 Q 12.796875,-1.171875 8.203125,3 q -4.59375,4.171875 -4.59375,10.671875 q 0,3.8125 1.734375,6.953125 q 1.734375,3.15625 4.546875,5.0625 q 2.8125,1.90625 6.328125,2.875 q 2.578125,0.6875 7.8125,1.328125 Q 34.671875,31.15625 39.703125,32.90625 Q 39.75,34.71875 39.75,35.203125 q 0,5.375 -2.5,7.578125 Q 33.890625,45.75 27.25,45.75 q -6.203125,0 -9.15625,-2.171875 q -2.953125,-2.171875 -4.375,-7.6875 L 5.125,37.0625 q 1.171875,5.515625 3.859375,8.90625 q 2.6875,3.390625 7.765625,5.21875 q 5.078125,1.84375 11.765625,1.84375 q 6.640625,0 10.78125,-1.5625 q 4.15625,-1.5625 6.109375,-3.9375 q 1.953125,-2.359375 2.734375,-5.984375 q 0.4375,-2.234375 0.4375,-8.09375 l 0,-11.71875 q 0,-12.265625 0.5625,-15.515625 Q 49.703125,2.984375 51.375,0 l -9.1875,0 q -1.359375,2.734375 -1.75,6.390625 M 39.703125,26.03125 Q 34.90625,24.078125 25.34375,22.703125 Q 19.921875,21.921875 17.671875,20.9375 Q 15.4375,19.96875 14.203125,18.09375 q -1.21875,-1.875 -1.21875,-4.171875 q 0,-3.515625 2.65625,-5.859375 Q 18.3125,5.71875 23.4375,5.71875 q 5.078125,0 9.03125,2.21875 q 3.953125,2.21875 5.8125,6.078125 Q 39.703125,17 39.703125,22.796875 Z"
         id="ArialMT-61"
         style="stroke-linecap:butt;stroke-linejoin:round;stroke-miterlimit:1" />
    </defs>
    <defs
       id="defs311">
      <path
         d="m 32.328125,0 l 0,17.140625 l -31.0625,0 l 0,8.0625 l 32.671875,46.375 l 7.171875,0 l 0,-46.375 l 9.671875,0 l 0,-8.0625 l -9.671875,0 L 41.109375,0 Z m 0,25.203125 l 0,32.265625 L 9.90625,25.203125 Z"
         id="ArialMT-34"
         style="stroke-linecap:butt;stroke-linejoin:round;stroke-miterlimit:1" />
      <path
         d="M 4.15625,18.75 L 13.375,19.53125 Q 14.40625,12.796875 18.140625,9.390625 Q 21.875,6 27.15625,6 Q 33.5,6 37.890625,10.78125 q 4.390625,4.796875 4.390625,12.703125 Q 42.28125,31 38.0625,35.34375 Q 33.84375,39.703125 27,39.703125 q -4.25,0 -7.671875,-1.9375 q -3.40625,-1.921875 -5.359375,-5 l -8.25,1.078125 l 6.921875,36.765625 l 35.609375,0 l 0,-8.40625 l -28.578125,0 L 15.828125,42.96875 q 6.4375,4.5 13.515625,4.5 q 9.375,0 15.8125,-6.5 q 6.453125,-6.5 6.453125,-16.703125 q 0,-9.71875 -5.65625,-16.796875 Q 39.0625,-1.21875 27.15625,-1.21875 q -9.765625,0 -15.953125,5.46875 Q 5.03125,9.71875 4.15625,18.75"
         id="ArialMT-35"
         style="stroke-linecap:butt;stroke-linejoin:round;stroke-miterlimit:1" />
    </defs>
    <defs
       id="defs330">
      <path
         d="m 4.734375,62.203125 l 0,8.453125 l 46.34375,0 l 0,-6.84375 q -6.84375,-7.265625 -13.5625,-19.328125 Q 30.8125,32.421875 27.15625,19.671875 Q 24.515625,10.6875 23.78125,0 L 14.75,0 q 0.140625,8.453125 3.3125,20.40625 q 3.171875,11.96875 9.109375,23.078125 q 5.9375,11.109375 12.625,18.71875 z"
         id="ArialMT-37"
         style="stroke-linecap:butt;stroke-linejoin:round;stroke-miterlimit:1" />
    </defs>
    <defs
       id="defs367">
      <path
         d="m 7.71875,0 l 0,71.578125 l 24.65625,0 q 8.34375,0 12.75,-1.015625 q 6.140625,-1.421875 10.484375,-5.125 q 5.671875,-4.796875 8.46875,-12.25 q 2.8125,-7.4375 2.8125,-17 q 0,-8.15625 -1.90625,-14.453125 q -1.890625,-6.296875 -4.875,-10.4375 q -2.984375,-4.125 -6.53125,-6.5 Q 50.046875,2.4375 45.046875,1.21875 Q 40.046875,0 33.546875,0 Z m 9.46875,8.453125 l 15.28125,0 q 7.078125,0 11.109375,1.3125 q 4.03125,1.3125 6.421875,3.71875 q 3.375,3.359375 5.25,9.046875 q 1.875,5.6875 1.875,13.796875 q 0,11.234375 -3.6875,17.265625 Q 49.75,59.625 44.484375,61.671875 q -3.8125,1.46875 -12.25,1.46875 l -15.046875,0 z"
         id="ArialMT-44"
         style="stroke-linecap:butt;stroke-linejoin:round;stroke-miterlimit:1" />
    </defs>
    <defs
       id="defs404">
      <path
         d="M 49.75,54.046875 L 41.015625,53.375 q -1.171875,5.171875 -3.3125,7.515625 Q 34.125,64.65625 28.90625,64.65625 q -4.203125,0 -7.375,-2.34375 Q 17.390625,59.28125 14.984375,53.46875 Q 12.59375,47.65625 12.5,36.921875 Q 15.671875,41.75 20.265625,44.09375 q 4.59375,2.34375 9.625,2.34375 q 8.78125,0 14.953125,-6.46875 Q 51.03125,33.5 51.03125,23.25 q 0,-6.75 -2.90625,-12.53125 Q 45.21875,4.9375 40.140625,1.859375 Q 35.0625,-1.21875 28.609375,-1.21875 Q 17.625,-1.21875 10.6875,6.859375 Q 3.765625,14.9375 3.765625,33.5 q 0,20.75 7.65625,30.171875 Q 18.109375,71.875 29.4375,71.875 q 8.453125,0 13.84375,-4.734375 Q 48.6875,62.40625 49.75,54.046875 M 13.875,23.1875 q 0,-4.53125 1.921875,-8.6875 Q 17.71875,10.359375 21.1875,8.171875 Q 24.65625,6 28.46875,6 q 5.5625,0 9.5625,4.484375 q 4.015625,4.5 4.015625,12.21875 q 0,7.421875 -3.96875,11.6875 Q 34.125,38.671875 28.125,38.671875 q -5.953125,0 -10.109375,-4.28125 Q 13.875,30.125 13.875,23.1875"
         id="ArialMT-36"
         style="stroke-linecap:butt;stroke-linejoin:round;stroke-miterlimit:1" />
    </defs>
    <defs
       id="defs424">
      <path
         d="m 41.21875,28.078125 l 0,8.390625 l 30.3125,0.0625 l 0,-26.5625 Q 64.546875,4.390625 57.125,1.578125 Q 49.703125,-1.21875 41.890625,-1.21875 q -10.546875,0 -19.171875,4.515625 q -8.609375,4.515625 -13,13.0625 Q 5.328125,24.90625 5.328125,35.453125 q 0,10.453125 4.359375,19.5 q 4.375,9.0625 12.578125,13.453125 q 8.203125,4.390625 18.890625,4.390625 q 7.765625,0 14.03125,-2.515625 q 6.28125,-2.5 9.84375,-7 q 3.578125,-4.484375 5.421875,-11.71875 l -8.53125,-2.34375 q -1.625,5.46875 -4.015625,8.59375 q -2.390625,3.125 -6.84375,5 q -4.4375,1.890625 -9.84375,1.890625 q -6.5,0 -11.234375,-1.984375 Q 25.25,60.75 22.34375,57.515625 Q 19.4375,54.296875 17.828125,50.4375 Q 15.09375,43.796875 15.09375,36.03125 q 0,-9.5625 3.296875,-16.015625 q 3.296875,-6.4375 9.59375,-9.5625 q 6.296875,-3.125 13.375,-3.125 q 6.15625,0 12.015625,2.359375 q 5.859375,2.375 8.875,5.0625 l 0,13.328125 z"
         id="ArialMT-47"
         style="stroke-linecap:butt;stroke-linejoin:round;stroke-miterlimit:1" />
      <path
         d="m 8.203125,0 l 0,71.578125 l 48.296875,0 l 0,-8.4375 l -38.828125,0 l 0,-22.171875 l 33.59375,0 l 0,-8.453125 l -33.59375,0 L 17.671875,0 Z"
         id="ArialMT-46"
         style="stroke-linecap:butt;stroke-linejoin:round;stroke-miterlimit:1" />
    </defs>
    <defs
       id="defs443">
      <path
         d="m 4.5,23 l 8.921875,0.78125 q 0.640625,-5.375 2.953125,-8.8125 q 2.328125,-3.4375 7.203125,-5.5625 q 4.890625,-2.125 11,-2.125 q 5.40625,0 9.5625,1.609375 Q 48.296875,10.5 50.3125,13.296875 q 2.03125,2.8125 2.03125,6.140625 q 0,3.359375 -1.953125,5.875 q -1.953125,2.515625 -6.4375,4.234375 q -2.890625,1.125 -12.75,3.484375 Q 21.34375,35.40625 17.390625,37.5 Q 12.25,40.1875 9.734375,44.15625 q -2.5,3.984375 -2.5,8.921875 q 0,5.421875 3.0625,10.125 q 3.078125,4.71875 8.984375,7.15625 q 5.921875,2.4375 13.140625,2.4375 q 7.953125,0 14.03125,-2.5625 q 6.09375,-2.5625 9.359375,-7.546875 q 3.265625,-4.96875 3.515625,-11.265625 L 50.25,50.734375 q -0.734375,6.78125 -4.96875,10.25 q -4.21875,3.46875 -12.46875,3.46875 q -8.59375,0 -12.53125,-3.15625 Q 16.359375,58.15625 16.359375,53.71875 q 0,-3.859375 2.78125,-6.359375 Q 21.875,44.875 33.421875,42.265625 q 11.546875,-2.609375 15.84375,-4.5625 q 6.25,-2.890625 9.21875,-7.3125 Q 61.46875,25.984375 61.46875,20.21875 Q 61.46875,14.5 58.203125,9.4375 Q 54.9375,4.390625 48.796875,1.578125 q -6.125,-2.796875 -13.78125,-2.796875 q -9.71875,0 -16.296875,2.828125 Q 12.15625,4.4375 8.421875,10.125 Q 4.6875,15.828125 4.5,23"
         id="ArialMT-53"
         style="stroke-linecap:butt;stroke-linejoin:round;stroke-miterlimit:1" />
    </defs>
    <defs
       id="defs461">
      <path
         d="M 25.78125,7.859375 L 27.046875,0.09375 Q 23.34375,-0.6875 20.40625,-0.6875 q -4.78125,0 -7.421875,1.515625 Q 10.359375,2.34375 9.28125,4.8125 Q 8.203125,7.28125 8.203125,15.1875 l 0,29.828125 l -6.4375,0 l 0,6.84375 l 6.4375,0 l 0,12.84375 L 16.9375,69.96875 l 0,-18.109375 l 8.84375,0 l 0,-6.84375 l -8.84375,0 l 0,-30.3125 q 0,-3.765625 0.46875,-4.84375 Q 17.875,8.796875 18.921875,8.15625 q 1.046875,-0.640625 3,-0.640625 q 1.46875,0 3.859375,0.34375"
         id="ArialMT-74"
         style="stroke-linecap:butt;stroke-linejoin:round;stroke-miterlimit:1" />
    </defs>
    <defs
       id="defs580">
      <path
         d="m 40.4375,19 l 8.640625,-1.125 Q 47.65625,8.9375 41.8125,3.875 Q 35.984375,-1.171875 27.484375,-1.171875 q -10.640625,0 -17.109375,6.953125 Q 3.90625,12.75 3.90625,25.734375 q 0,8.390625 2.78125,14.6875 q 2.78125,6.3125 8.46875,9.453125 q 5.6875,3.15625 12.390625,3.15625 q 8.4375,0 13.8125,-4.28125 Q 46.734375,44.484375 48.25,36.625 L 39.703125,35.296875 Q 38.484375,40.53125 35.375,43.15625 q -3.09375,2.640625 -7.5,2.640625 q -6.640625,0 -10.796875,-4.765625 Q 12.9375,36.28125 12.9375,25.984375 q 0,-10.453125 4,-15.1875 Q 20.953125,6.0625 27.390625,6.0625 q 5.171875,0 8.640625,3.171875 Q 39.5,12.40625 40.4375,19"
         id="ArialMT-63"
         style="stroke-linecap:butt;stroke-linejoin:round;stroke-miterlimit:1" />
    </defs>
    <defs
       id="defs666">
      <path
         d="m 3.171875,21.484375 l 0,8.84375 l 27,0 l 0,-8.84375 z"
         id="ArialMT-2d"
         style="stroke-linecap:butt;stroke-linejoin:round;stroke-miterlimit:1" />
    </defs>
    <defs
       id="defs924">
      <path
         d="m 3.328125,25.921875 q 0,14.40625 8,21.34375 q 6.6875,5.765625 16.3125,5.765625 q 10.6875,0 17.46875,-7.015625 q 6.796875,-7 6.796875,-19.359375 q 0,-10 -3,-15.75 q -3,-5.734375 -8.75,-8.90625 Q 34.421875,-1.171875 27.640625,-1.171875 Q 16.75,-1.171875 10.03125,5.8125 Q 3.328125,12.796875 3.328125,25.921875 m 9.03125,0 q 0,-9.953125 4.34375,-14.90625 Q 21.046875,6.0625 27.640625,6.0625 q 6.546875,0 10.890625,4.96875 q 4.34375,4.984375 4.34375,15.1875 q 0,9.625 -4.375,14.578125 Q 34.125,45.75 27.640625,45.75 q -6.59375,0 -10.9375,-4.9375 q -4.34375,-4.921875 -4.34375,-14.890625"
         id="ArialMT-6f"
         style="stroke-linecap:butt;stroke-linejoin:round;stroke-miterlimit:1" />
      <path
         d="m 6.5,0 l 0,51.859375 l 7.90625,0 L 14.40625,44 Q 17.4375,49.515625 20,51.265625 q 2.5625,1.765625 5.640625,1.765625 q 4.4375,0 9.03125,-2.828125 l -3.03125,-8.15625 q -3.21875,1.90625 -6.4375,1.90625 q -2.890625,0 -5.1875,-1.734375 Q 17.71875,40.484375 16.75,37.40625 q -1.46875,-4.6875 -1.46875,-10.25 L 15.28125,0 Z"
         id="ArialMT-72"
         style="stroke-linecap:butt;stroke-linejoin:round;stroke-miterlimit:1" />
    </defs>
    <defs
       id="defs968">
      <path
         d="m 40.234375,0 l 0,6.546875 q -4.9375,-7.71875 -14.5,-7.71875 q -6.203125,0 -11.40625,3.421875 Q 9.125,5.671875 6.265625,11.796875 q -2.84375,6.125 -2.84375,14.078125 q 0,7.765625 2.578125,14.09375 q 2.59375,6.328125 7.765625,9.6875 q 5.1875,3.375 11.578125,3.375 q 4.6875,0 8.34375,-1.984375 q 3.671875,-1.96875 5.96875,-5.140625 l 0,25.671875 l 8.734375,0 L 48.390625,0 Z m -27.78125,25.875 q 0,-9.953125 4.1875,-14.890625 Q 20.84375,6.0625 26.5625,6.0625 q 5.765625,0 9.78125,4.703125 q 4.03125,4.71875 4.03125,14.375 q 0,10.65625 -4.109375,15.625 Q 32.171875,45.75 26.171875,45.75 Q 20.3125,45.75 16.375,40.96875 Q 12.453125,36.1875 12.453125,25.875"
         id="ArialMT-64"
         style="stroke-linecap:butt;stroke-linejoin:round;stroke-miterlimit:1" />
    </defs>
    <defs
       id="defs1163">
      <path
         d="m 8.015625,0 l 0,71.578125 l 9.46875,0 l 0,-29.390625 l 37.203125,0 l 0,29.390625 l 9.46875,0 L 64.15625,0 L 54.6875,0 l 0,33.734375 l -37.203125,0 L 17.484375,0 Z"
         id="ArialMT-48"
         style="stroke-linecap:butt;stroke-linejoin:round;stroke-miterlimit:1" />
    </defs>
    <defs
       id="defs1427">
      <path
         d="m 42.09375,16.703125 l 9.078125,-1.125 Q 49.03125,7.625 43.21875,3.21875 Q 37.40625,-1.171875 28.375,-1.171875 q -11.375,0 -18.046875,7 Q 3.65625,12.84375 3.65625,25.484375 q 0,13.09375 6.734375,20.3125 q 6.75,7.234375 17.484375,7.234375 q 10.40625,0 17,-7.078125 Q 51.46875,38.875 51.46875,26.03125 q 0,-0.78125 -0.04687,-2.34375 l -38.671875,0 Q 13.23438,15.140625 17.57813,10.59375 Q 21.921875,6.0625 28.421875,6.0625 q 4.828125,0 8.25,2.53125 q 3.421875,2.546875 5.421875,8.109375 M 13.234375,30.90625 l 28.953125,0 q -0.578125,6.546875 -3.3125,9.8125 q -4.203125,5.078125 -10.890625,5.078125 q -6.0625,0 -10.1875,-4.046875 q -4.125,-4.046875 -4.5625,-10.84375"
         id="ArialMT-65"
         style="stroke-linecap:butt;stroke-linejoin:round;stroke-miterlimit:1" />
    </defs>
    <defs
       id="defs1749">
      <path
         d="m 6.640625,61.46875 l 0,10.109375 l 8.796875,0 l 0,-10.109375 z M 6.640625,0 l 0,51.859375 l 8.796875,0 L 15.4375,0 Z"
         id="ArialMT-69"
         style="stroke-linecap:butt;stroke-linejoin:round;stroke-miterlimit:1" />
    </defs>
    <defs
       id="defs1895">
      <path
         d="m 6.59375,0 l 0,51.859375 l 7.90625,0 l 0,-7.375 Q 20.21875,53.03125 31,53.03125 q 4.6875,0 8.625,-1.6875 q 3.9375,-1.6875 5.890625,-4.421875 Q 47.46875,44.1875 48.25,40.4375 q 0.484375,-2.453125 0.484375,-8.546875 L 48.734375,0 L 39.9375,0 l 0,31.546875 q 0,5.375 -1.03125,8.03125 q -1.015625,2.65625 -3.625,4.234375 q -2.609375,1.59375 -6.125,1.59375 q -5.625,0 -9.703125,-3.5625 Q 15.375,38.28125 15.375,28.328125 L 15.375,0 Z"
         id="ArialMT-6e"
         style="stroke-linecap:butt;stroke-linejoin:round;stroke-miterlimit:1" />
    </defs>
    <defs
       id="defs1945">
      <path
         d="m 6.390625,0 l 0,71.578125 l 8.796875,0 L 15.1875,0 Z"
         id="ArialMT-6c"
         style="stroke-linecap:butt;stroke-linejoin:round;stroke-miterlimit:1" />
    </defs>
    <defs
       id="defs3889">
      <path
         d="m 52.828125,31.203125 l -47.265625,0 l 0,8.203125 l 47.265625,0 z"
         id="ArialMT-2212"
         style="stroke-linecap:butt;stroke-linejoin:round;stroke-miterlimit:1" />
    </defs>
    <defs
       id="defs3881">
      <path
         d="M 0,0 L 0,4"
         id="mf19d6074b8"
         style="stroke:#000000;stroke-width:0.5;stroke-linecap:butt;stroke-linejoin:round;stroke-miterlimit:1" />
    </defs>
    <linearGradient
       y2="2059.8679"
       y1="2059.8679"
       x2="96.124985"
       x1="-0.10910895"
       id="id1"
       gradientTransform="scale(4.5825757,0.21821789)"
       gradientUnits="userSpaceOnUse">
      <stop
         id="stop7"
         stop-color="rgb(229,229,229)"
         offset="0.0" />
      <stop
         id="stop9"
         stop-color="rgb(241,229,122)"
         offset="0.0256" />
      <stop
         id="stop11"
         stop-color="rgb(237,206,100)"
         offset="0.0513" />
      <stop
         id="stop13"
         stop-color="rgb(233,184,78)"
         offset="0.0769" />
      <stop
         id="stop15"
         stop-color="rgb(229,162,56)"
         offset="0.1026" />
      <stop
         id="stop17"
         stop-color="rgb(226,140,34)"
         offset="0.1282" />
      <stop
         id="stop19"
         stop-color="rgb(224,129,33)"
         offset="0.1538" />
      <stop
         id="stop21"
         stop-color="rgb(222,120,33)"
         offset="0.1795" />
      <stop
         id="stop23"
         stop-color="rgb(220,110,34)"
         offset="0.2051" />
      <stop
         id="stop25"
         stop-color="rgb(218,100,34)"
         offset="0.2308" />
      <stop
         id="stop27"
         stop-color="rgb(216,90,34)"
         offset="0.2564" />
      <stop
         id="stop29"
         stop-color="rgb(214,81,35)"
         offset="0.2821" />
      <stop
         id="stop31"
         stop-color="rgb(212,71,35)"
         offset="0.3077" />
      <stop
         id="stop33"
         stop-color="rgb(209,67,37)"
         offset="0.3333" />
      <stop
         id="stop35"
         stop-color="rgb(203,68,40)"
         offset="0.359" />
      <stop
         id="stop37"
         stop-color="rgb(198,69,44)"
         offset="0.3846" />
      <stop
         id="stop39"
         stop-color="rgb(193,70,47)"
         offset="0.4103" />
      <stop
         id="stop41"
         stop-color="rgb(187,71,50)"
         offset="0.4359" />
      <stop
         id="stop43"
         stop-color="rgb(182,72,53)"
         offset="0.4615" />
      <stop
         id="stop45"
         stop-color="rgb(176,73,57)"
         offset="0.4872" />
      <stop
         id="stop47"
         stop-color="rgb(171,74,60)"
         offset="0.5128" />
      <stop
         id="stop49"
         stop-color="rgb(166,75,63)"
         offset="0.5385" />
      <stop
         id="stop51"
         stop-color="rgb(160,76,66)"
         offset="0.5641" />
      <stop
         id="stop53"
         stop-color="rgb(155,77,70)"
         offset="0.5897" />
      <stop
         id="stop55"
         stop-color="rgb(150,78,73)"
         offset="0.6154" />
      <stop
         id="stop57"
         stop-color="rgb(144,79,76)"
         offset="0.641" />
      <stop
         id="stop59"
         stop-color="rgb(139,80,79)"
         offset="0.6667" />
      <stop
         id="stop61"
         stop-color="rgb(133,81,82)"
         offset="0.6923" />
      <stop
         id="stop63"
         stop-color="rgb(128,82,86)"
         offset="0.7179" />
      <stop
         id="stop65"
         stop-color="rgb(123,82,88)"
         offset="0.7436" />
      <stop
         id="stop67"
         stop-color="rgb(117,77,82)"
         offset="0.7692" />
      <stop
         id="stop69"
         stop-color="rgb(110,73,76)"
         offset="0.7949" />
      <stop
         id="stop71"
         stop-color="rgb(104,68,71)"
         offset="0.8205" />
      <stop
         id="stop73"
         stop-color="rgb(98,64,65)"
         offset="0.8462" />
      <stop
         id="stop75"
         stop-color="rgb(92,59,59)"
         offset="0.8718" />
      <stop
         id="stop77"
         stop-color="rgb(86,54,53)"
         offset="0.8974" />
      <stop
         id="stop79"
         stop-color="rgb(81,51,49)"
         offset="0.9231" />
      <stop
         id="stop81"
         stop-color="rgb(81,51,49)"
         offset="0.9487" />
      <stop
         id="stop83"
         stop-color="rgb(81,51,49)"
         offset="0.9744" />
      <stop
         id="stop85"
         stop-color="rgb(81,51,49)"
         offset="1.0" />
    </linearGradient>
  </defs>
  <use
     transform="matrix(0.08,0,0,-0.08,195.82,53.609635)"
     xlink:href="#ArialMT-20"
     id="use4010"
     style="stroke-linecap:butt;stroke-linejoin:round;stroke-miterlimit:1"
     x="0"
     y="0"
     width="100%"
     height="100%" />
  <use
     transform="matrix(0.08,0,0,-0.08,204.71453,53.609635)"
     xlink:href="#ArialMT-20"
     id="use4016"
     style="stroke-linecap:butt;stroke-linejoin:round;stroke-miterlimit:1"
     x="0"
     y="0"
     width="100%"
     height="100%" />
  <use
     transform="matrix(0.08,0,0,-0.08,236.27703,53.609635)"
     xlink:href="#ArialMT-20"
     id="use4036"
     style="stroke-linecap:butt;stroke-linejoin:round;stroke-miterlimit:1"
     x="0"
     y="0"
     width="100%"
     height="100%" />
  <use
     transform="matrix(0.08,0,0,-0.08,266.07781,53.609635)"
     xlink:href="#ArialMT-20"
     id="use4054"
     style="stroke-linecap:butt;stroke-linejoin:round;stroke-miterlimit:1"
     x="0"
     y="0"
     width="100%"
     height="100%" />
  <use
     transform="matrix(0.08,0,0,-0.08,297.21062,53.609635)"
     xlink:href="#ArialMT-20"
     id="use4070"
     style="stroke-linecap:butt;stroke-linejoin:round;stroke-miterlimit:1"
     x="0"
     y="0"
     width="100%"
     height="100%" />
  <defs
     id="defs4095" />
  <ellipse
     ry="13.099423"
     rx="13.118869"
     style="color:#000000;clip-rule:nonzero;display:inline;overflow:visible;visibility:visible;opacity:1;isolation:auto;mix-blend-mode:normal;color-interpolation:sRGB;color-interpolation-filters:linearRGB;solid-color:#000000;solid-opacity:1;fill:#f5f5f5;fill-opacity:1;fill-rule:nonzero;stroke:#000000;stroke-width:0.80000001;stroke-linecap:butt;stroke-linejoin:miter;stroke-miterlimit:4;stroke-dasharray:none;stroke-dashoffset:0;stroke-opacity:1;marker:none;color-rendering:auto;image-rendering:auto;shape-rendering:auto;text-rendering:auto;enable-background:accumulate"
     id="circle4487"
     cx="43.906757"
     cy="34.360001" />
  <ellipse
     ry="13.099423"
     rx="13.118869"
     style="color:#000000;clip-rule:nonzero;display:inline;overflow:visible;visibility:visible;opacity:1;isolation:auto;mix-blend-mode:normal;color-interpolation:sRGB;color-interpolation-filters:linearRGB;solid-color:#000000;solid-opacity:1;fill:#f0f0f0;fill-opacity:1;fill-rule:nonzero;stroke:#000000;stroke-width:0.80000001;stroke-linecap:butt;stroke-linejoin:miter;stroke-miterlimit:4;stroke-dasharray:none;stroke-dashoffset:0;stroke-opacity:1;marker:none;color-rendering:auto;image-rendering:auto;shape-rendering:auto;text-rendering:auto;enable-background:accumulate"
     id="circle4483"
     cx="56.957249"
     cy="34.232956" />
  <ellipse
     ry="13.099423"
     rx="13.118869"
     cy="34.232956"
     cx="70.007805"
     id="circle4485"
     style="color:#000000;clip-rule:nonzero;display:inline;overflow:visible;visibility:visible;opacity:1;isolation:auto;mix-blend-mode:normal;color-interpolation:sRGB;color-interpolation-filters:linearRGB;solid-color:#000000;solid-opacity:1;fill:#ebebeb;fill-opacity:1;fill-rule:nonzero;stroke:#000000;stroke-width:0.80000001;stroke-linecap:butt;stroke-linejoin:miter;stroke-miterlimit:4;stroke-dasharray:none;stroke-dashoffset:0;stroke-opacity:1;marker:none;color-rendering:auto;image-rendering:auto;shape-rendering:auto;text-rendering:auto;enable-background:accumulate" />
  <ellipse
     ry="13.099423"
     rx="13.118869"
     style="color:#000000;clip-rule:nonzero;display:inline;overflow:visible;visibility:visible;opacity:1;isolation:auto;mix-blend-mode:normal;color-interpolation:sRGB;color-interpolation-filters:linearRGB;solid-color:#000000;solid-opacity:1;fill:#e6e6e5;fill-opacity:1;fill-rule:nonzero;stroke:#000000;stroke-width:0.80000001;stroke-linecap:butt;stroke-linejoin:miter;stroke-miterlimit:4;stroke-dasharray:none;stroke-dashoffset:0;stroke-opacity:1;marker:none;color-rendering:auto;image-rendering:auto;shape-rendering:auto;text-rendering:auto;enable-background:accumulate"
     id="circle4489"
     cx="83.058304"
     cy="34.232956" />
  <ellipse
     ry="13.099423"
     rx="13.118869"
     cy="34.232956"
     cx="96.10878"
     id="circle4475"
     style="color:#000000;clip-rule:nonzero;display:inline;overflow:visible;visibility:visible;opacity:1;isolation:auto;mix-blend-mode:normal;color-interpolation:sRGB;color-interpolation-filters:linearRGB;solid-color:#000000;solid-opacity:1;fill:#e6e6e4;fill-opacity:1;fill-rule:nonzero;stroke:#000000;stroke-width:0.80000001;stroke-linecap:butt;stroke-linejoin:miter;stroke-miterlimit:4;stroke-dasharray:none;stroke-dashoffset:0;stroke-opacity:1;marker:none;color-rendering:auto;image-rendering:auto;shape-rendering:auto;text-rendering:auto;enable-background:accumulate" />
  <ellipse
     ry="13.099423"
     rx="13.118869"
     style="color:#000000;clip-rule:nonzero;display:inline;overflow:visible;visibility:visible;opacity:1;isolation:auto;mix-blend-mode:normal;color-interpolation:sRGB;color-interpolation-filters:linearRGB;solid-color:#000000;solid-opacity:1;fill:#e7e7e0;fill-opacity:1;fill-rule:nonzero;stroke:#000000;stroke-width:0.80000001;stroke-linecap:butt;stroke-linejoin:miter;stroke-miterlimit:4;stroke-dasharray:none;stroke-dashoffset:0;stroke-opacity:1;marker:none;color-rendering:auto;image-rendering:auto;shape-rendering:auto;text-rendering:auto;enable-background:accumulate"
     id="circle4467"
     cx="109.15928"
     cy="34.232956" />
  <ellipse
     ry="13.099423"
     rx="13.118869"
     cy="34.232956"
     cx="122.20976"
     id="circle4469"
     style="color:#000000;clip-rule:nonzero;display:inline;overflow:visible;visibility:visible;opacity:1;isolation:auto;mix-blend-mode:normal;color-interpolation:sRGB;color-interpolation-filters:linearRGB;solid-color:#000000;solid-opacity:1;fill:#e9e9d4;fill-opacity:1;fill-rule:nonzero;stroke:#000000;stroke-width:0.80000001;stroke-linecap:butt;stroke-linejoin:miter;stroke-miterlimit:4;stroke-dasharray:none;stroke-dashoffset:0;stroke-opacity:1;marker:none;color-rendering:auto;image-rendering:auto;shape-rendering:auto;text-rendering:auto;enable-background:accumulate" />
  <ellipse
     ry="13.099423"
     rx="13.118869"
     cy="34.232956"
     cx="135.26021"
     id="circle4471"
     style="color:#000000;clip-rule:nonzero;display:inline;overflow:visible;visibility:visible;opacity:1;isolation:auto;mix-blend-mode:normal;color-interpolation:sRGB;color-interpolation-filters:linearRGB;solid-color:#000000;solid-opacity:1;fill:#eff1ad;fill-opacity:1;fill-rule:nonzero;stroke:#000000;stroke-width:0.80000001;stroke-linecap:butt;stroke-linejoin:miter;stroke-miterlimit:4;stroke-dasharray:none;stroke-dashoffset:0;stroke-opacity:1;marker:none;color-rendering:auto;image-rendering:auto;shape-rendering:auto;text-rendering:auto;enable-background:accumulate" />
  <ellipse
     ry="13.099423"
     rx="13.118869"
     style="color:#000000;clip-rule:nonzero;display:inline;overflow:visible;visibility:visible;opacity:1;isolation:auto;mix-blend-mode:normal;color-interpolation:sRGB;color-interpolation-filters:linearRGB;solid-color:#000000;solid-opacity:1;fill:#f3f388;fill-opacity:1;fill-rule:nonzero;stroke:#000000;stroke-width:0.80000001;stroke-linecap:butt;stroke-linejoin:miter;stroke-miterlimit:4;stroke-dasharray:none;stroke-dashoffset:0;stroke-opacity:1;marker:none;color-rendering:auto;image-rendering:auto;shape-rendering:auto;text-rendering:auto;enable-background:accumulate"
     id="circle4473"
     cx="148.69795"
     cy="34.232956" />
  <ellipse
     ry="13.099423"
     rx="13.118869"
     cy="34.232956"
     cx="162.1357"
     id="circle4463"
     style="color:#000000;clip-rule:nonzero;display:inline;overflow:visible;visibility:visible;opacity:1;isolation:auto;mix-blend-mode:normal;color-interpolation:sRGB;color-interpolation-filters:linearRGB;solid-color:#000000;solid-opacity:1;fill:#f0e075;fill-opacity:1;fill-rule:nonzero;stroke:#000000;stroke-width:0.80000001;stroke-linecap:butt;stroke-linejoin:miter;stroke-miterlimit:4;stroke-dasharray:none;stroke-dashoffset:0;stroke-opacity:1;marker:none;color-rendering:auto;image-rendering:auto;shape-rendering:auto;text-rendering:auto;enable-background:accumulate" />
  <ellipse
     ry="13.099423"
     rx="13.118869"
     style="color:#000000;clip-rule:nonzero;display:inline;overflow:visible;visibility:visible;opacity:1;isolation:auto;mix-blend-mode:normal;color-interpolation:sRGB;color-interpolation-filters:linearRGB;solid-color:#000000;solid-opacity:1;fill:#e6a53b;fill-opacity:1;fill-rule:nonzero;stroke:#000000;stroke-width:0.80000001;stroke-linecap:butt;stroke-linejoin:miter;stroke-miterlimit:4;stroke-dasharray:none;stroke-dashoffset:0;stroke-opacity:1;marker:none;color-rendering:auto;image-rendering:auto;shape-rendering:auto;text-rendering:auto;enable-background:accumulate"
     id="circle4465"
     cx="175.57344"
     cy="34.232956" />
  <ellipse
     ry="13.099423"
     rx="13.118869"
     style="color:#000000;clip-rule:nonzero;display:inline;overflow:visible;visibility:visible;opacity:1;isolation:auto;mix-blend-mode:normal;color-interpolation:sRGB;color-interpolation-filters:linearRGB;solid-color:#000000;solid-opacity:1;fill:#d44424;fill-opacity:1;fill-rule:nonzero;stroke:#000000;stroke-width:0.80000001;stroke-linecap:butt;stroke-linejoin:miter;stroke-miterlimit:4;stroke-dasharray:none;stroke-dashoffset:0;stroke-opacity:1;marker:none;color-rendering:auto;image-rendering:auto;shape-rendering:auto;text-rendering:auto;enable-background:accumulate"
     id="circle4461"
     cx="189.01115"
     cy="34.232956" />
  <ellipse
     ry="13.099423"
     rx="13.118869"
     cy="34.360001"
     cx="202.4489"
     id="path3659"
     style="color:#000000;clip-rule:nonzero;display:inline;overflow:visible;visibility:visible;opacity:1;isolation:auto;mix-blend-mode:normal;color-interpolation:sRGB;color-interpolation-filters:linearRGB;solid-color:#000000;solid-opacity:1;fill:#513331;fill-opacity:1;fill-rule:nonzero;stroke:#000000;stroke-width:0.80000001;stroke-linecap:butt;stroke-linejoin:miter;stroke-miterlimit:4;stroke-dasharray:none;stroke-dashoffset:0;stroke-opacity:1;marker:none;color-rendering:auto;image-rendering:auto;shape-rendering:auto;text-rendering:auto;enable-background:accumulate" />
  <text
     xml:space="preserve"
     style="font-style:normal;font-weight:normal;font-size:11px;line-height:125%;font-family:sans-serif;letter-spacing:0px;word-spacing:0px;fill:#000000;fill-opacity:1;stroke:none;stroke-width:1px;stroke-linecap:butt;stroke-linejoin:miter;stroke-miterlimit:1;stroke-opacity:1"
     x="7.0976572"
     y="12.445262"
     id="text4530"><tspan
       id="tspan4532"
       style="font-style:normal;font-variant:normal;font-weight:normal;font-stretch:normal;font-family:arial;-inkscape-font-specification:arial;stroke-linecap:butt;stroke-linejoin:round;stroke-miterlimit:1"
       x="7.0976572"
       y="12.445262">Fraction of extrinsic labelled neurons, log<tspan
   style="font-size:5.71999979px;baseline-shift:sub;stroke-linecap:butt;stroke-linejoin:round;stroke-miterlimit:1"
   id="tspan4534">10</tspan>(FLNe)</tspan></text>
  <use
     style="stroke:#000000;stroke-width:0.55623615;stroke-linecap:butt;stroke-linejoin:round;stroke-miterlimit:1"
     x="137.28755"
     xlink:href="#mf19d6074b8"
     y="519.46722"
     id="use4536"
     width="100%"
     height="100%"
     transform="matrix(0.89956576,0,0,0.89823224,-79.592431,-418.74276)" />
  <use
     style="stroke:#000000;stroke-width:0.55623615;stroke-linecap:butt;stroke-linejoin:round;stroke-miterlimit:1"
     x="183.77574"
     xlink:href="#mf19d6074b8"
     y="519.46722"
     id="use4538"
     width="100%"
     height="100%"
     transform="matrix(0.89956576,0,0,0.89823224,-95.310589,-418.86979)" />
  <use
     style="stroke:#000000;stroke-width:0.55623615;stroke-linecap:butt;stroke-linejoin:round;stroke-miterlimit:1"
     x="230.26393"
     xlink:href="#mf19d6074b8"
     y="519.46722"
     id="use4540"
     width="100%"
     height="100%"
     transform="matrix(0.89956576,0,0,0.89823224,-111.49721,-418.86979)" />
  <use
     style="stroke:#000000;stroke-width:0.55623615;stroke-linecap:butt;stroke-linejoin:round;stroke-miterlimit:1"
     x="276.75214"
     xlink:href="#mf19d6074b8"
     y="519.46722"
     id="use4542"
     width="100%"
     height="100%"
     transform="matrix(0.89956576,0,0,0.89823224,-127.21547,-418.86979)" />
  <use
     style="stroke:#000000;stroke-width:0.55623615;stroke-linecap:butt;stroke-linejoin:round;stroke-miterlimit:1"
     x="323.24033"
     xlink:href="#mf19d6074b8"
     y="519.46722"
     id="use4544"
     width="100%"
     height="100%"
     transform="matrix(0.89956576,0,0,0.89823224,-141.99692,-418.86979)" />
  <use
     style="stroke:#000000;stroke-width:0.55623615;stroke-linecap:butt;stroke-linejoin:round;stroke-miterlimit:1"
     x="369.72852"
     xlink:href="#mf19d6074b8"
     y="519.46722"
     id="use4546"
     width="100%"
     height="100%"
     transform="matrix(0.89956576,0,0,0.89823224,-157.02174,-418.86979)" />
  <use
     style="stroke:#000000;stroke-width:0.55623615;stroke-linecap:butt;stroke-linejoin:round;stroke-miterlimit:1"
     x="416.21671"
     xlink:href="#mf19d6074b8"
     y="519.46722"
     id="use4548"
     width="100%"
     height="100%"
     transform="matrix(0.89956576,0,0,0.89823224,-171.96543,-418.74276)" />
  <text
     id="text4550"
     y="60.660358"
     x="30.161947"
     style="font-style:normal;font-weight:normal;font-size:11px;line-height:125%;font-family:sans-serif;letter-spacing:0px;word-spacing:0px;fill:#000000;fill-opacity:1;stroke:none;stroke-width:1px;stroke-linecap:butt;stroke-linejoin:miter;stroke-miterlimit:1;stroke-opacity:1"
     xml:space="preserve"><tspan
       y="60.660358"
       x="30.161947"
       style="font-style:normal;font-variant:normal;font-weight:normal;font-stretch:normal;font-family:arial;-inkscape-font-specification:arial;stroke-linecap:butt;stroke-linejoin:round;stroke-miterlimit:1"
       id="tspan4552">	6</tspan></text>
  <text
     xml:space="preserve"
     style="font-style:normal;font-weight:normal;font-size:11px;line-height:125%;font-family:sans-serif;letter-spacing:0px;word-spacing:0px;fill:#000000;fill-opacity:1;stroke:none;stroke-width:1px;stroke-linecap:butt;stroke-linejoin:miter;stroke-miterlimit:1;stroke-opacity:1"
     x="56.229725"
     y="60.52071"
     id="text4554"><tspan
       id="tspan4556"
       style="font-style:normal;font-variant:normal;font-weight:normal;font-stretch:normal;font-family:arial;-inkscape-font-specification:arial;stroke-linecap:butt;stroke-linejoin:round;stroke-miterlimit:1"
       x="56.229725"
       y="60.52071">	5</tspan></text>
  <text
     id="text4558"
     y="60.628132"
     x="81.714233"
     style="font-style:normal;font-weight:normal;font-size:11px;line-height:125%;font-family:sans-serif;letter-spacing:0px;word-spacing:0px;fill:#000000;fill-opacity:1;stroke:none;stroke-width:1px;stroke-linecap:butt;stroke-linejoin:miter;stroke-miterlimit:1;stroke-opacity:1"
     xml:space="preserve"><tspan
       y="60.628132"
       x="81.714233"
       style="font-style:normal;font-variant:normal;font-weight:normal;font-stretch:normal;font-family:arial;-inkscape-font-specification:arial;stroke-linecap:butt;stroke-linejoin:round;stroke-miterlimit:1"
       id="tspan4560">	4</tspan></text>
  <text
     xml:space="preserve"
     style="font-style:normal;font-weight:normal;font-size:11px;line-height:125%;font-family:sans-serif;letter-spacing:0px;word-spacing:0px;fill:#000000;fill-opacity:1;stroke:none;stroke-width:1px;stroke-linecap:butt;stroke-linejoin:miter;stroke-miterlimit:1;stroke-opacity:1"
     x="108.74854"
     y="60.660358"
     id="text4562"><tspan
       id="tspan4564"
       style="font-style:normal;font-variant:normal;font-weight:normal;font-stretch:normal;font-family:arial;-inkscape-font-specification:arial;stroke-linecap:butt;stroke-linejoin:round;stroke-miterlimit:1"
       x="108.74854"
       y="60.660358">	3</tspan></text>
  <text
     id="text4566"
     y="60.660358"
     x="135.92729"
     style="font-style:normal;font-weight:normal;font-size:11px;line-height:125%;font-family:sans-serif;letter-spacing:0px;word-spacing:0px;fill:#000000;fill-opacity:1;stroke:none;stroke-width:1px;stroke-linecap:butt;stroke-linejoin:miter;stroke-miterlimit:1;stroke-opacity:1"
     xml:space="preserve"><tspan
       y="60.660358"
       x="135.92729"
       style="font-style:normal;font-variant:normal;font-weight:normal;font-stretch:normal;font-family:arial;-inkscape-font-specification:arial;stroke-linecap:butt;stroke-linejoin:round;stroke-miterlimit:1"
       id="tspan4568">	2</tspan></text>
  <text
     xml:space="preserve"
     style="font-style:normal;font-weight:normal;font-size:11px;line-height:125%;font-family:sans-serif;letter-spacing:0px;word-spacing:0px;fill:#000000;fill-opacity:1;stroke:none;stroke-width:1px;stroke-linecap:butt;stroke-linejoin:miter;stroke-miterlimit:1;stroke-opacity:1"
     x="163.30849"
     y="60.660358"
     id="text4570"><tspan
       id="tspan4572"
       style="font-style:normal;font-variant:normal;font-weight:normal;font-stretch:normal;font-family:arial;-inkscape-font-specification:arial;stroke-linecap:butt;stroke-linejoin:round;stroke-miterlimit:1"
       x="163.30849"
       y="60.660358">	1</tspan></text>
  <text
     id="text4574"
     y="60.660358"
     x="194.44557"
     style="font-style:normal;font-weight:normal;font-size:11px;line-height:125%;font-family:sans-serif;letter-spacing:0px;word-spacing:0px;fill:#000000;fill-opacity:1;stroke:none;stroke-width:1px;stroke-linecap:butt;stroke-linejoin:miter;stroke-miterlimit:1;stroke-opacity:1"
     xml:space="preserve"><tspan
       y="60.660358"
       x="194.44557"
       style="font-style:normal;font-variant:normal;font-weight:normal;font-stretch:normal;font-family:arial;-inkscape-font-specification:arial;stroke-linecap:butt;stroke-linejoin:round;stroke-miterlimit:1"
       id="tspan4576">	0</tspan></text>
</svg>
